<svg xmlns="http://www.w3.org/2000/svg" viewBox="0 0 614.2235 158.89887"><g id="Layer_2" data-name="Layer 2"><g id="Layer_1-2" data-name="Layer 1"><path d="M608.2014,88.6652c-2.5168,11.54113-15.6706,18.149-27.4612,17.4335s-22.469-6.85347-32.6865-12.7808-20.9905-11.957-32.7938-12.4187c-13.2812-.5195-25.6954,6.0687-38.6851,8.8847-40.9409,8.87543-84.8296-19.937-124.1174-5.3974-20.4912,7.5833-35.0227,25.47052-49.8323,41.53512s-32.8652,31.8928-54.6902,32.9236c-25.4457,1.2019-48.7891-18.2141-74.1488-15.8036-13.9461,1.3256-26.5453,9.17208-40.4099,11.1784-23.3626,3.3809-45.4111-9.9982-66.1555-21.2636S21.1615,112.03,0,122.49092V0H614.2235Z" fill="#ffb500"/></g></g></svg>